<svg xmlns="http://www.w3.org/2000/svg" xmlns:xlink="http://www.w3.org/1999/xlink" viewBox="0 0 747.76 1123.17"><defs><style>.cls-1{fill:url(#Dégradé_sans_nom_2);}.cls-2{fill:url(#Dégradé_sans_nom_15);}</style><linearGradient id="Dégradé_sans_nom_2" x1="239.33" y1="497.3" x2="230.31" y2="975.5" gradientUnits="userSpaceOnUse"><stop offset="0.12" stop-color="#ffd100"/><stop offset="0.56" stop-color="#d16841"/><stop offset="1" stop-color="#c9403c"/></linearGradient><linearGradient id="Dégradé_sans_nom_15" x1="536.57" y1="1052.45" x2="530.67" y2="391.26" gradientUnits="userSpaceOnUse"><stop offset="0" stop-color="#04f"/><stop offset="0.14" stop-color="#0071ca"/><stop offset="0.3" stop-color="#009c98"/><stop offset="0.46" stop-color="#00c06e"/><stop offset="0.6" stop-color="#00db4e"/><stop offset="0.75" stop-color="#00ef37"/><stop offset="0.88" stop-color="#00fb29"/><stop offset="1" stop-color="#00ff24"/></linearGradient></defs><g id="Object"><path class="cls-1" d="M475.92,643.07a285.19,285.19,0,0,1-101.17,18.75c-157,.47-285.91-127.21-286.92-284.18-1-158.83,127.45-287.92,286.05-287.92,9.08,0,18.05.44,26.91,1.26a1.68,1.68,0,0,0,1.64-.84L448.86,9.87A1.74,1.74,0,0,0,447.7,7.3,375.63,375.63,0,0,0,373.88,0C167.39,0,0,167.39,0,373.88,0,513,169.79,805.83,280.53,982a1.73,1.73,0,0,0,3-.07L478,645.55A1.73,1.73,0,0,0,475.92,643.07Z"/><path class="cls-2" d="M685.58,586.85c0-.08.09-.17.13-.25,37.06-83.35,62-159.34,62-212.72,0-157.72-97.67-292.63-235.83-347.55a2.64,2.64,0,0,0-3.26,1.14l-42.84,74.06a2.63,2.63,0,0,0,1.43,3.8C579.39,144,659.93,250.49,659.93,375.77A284.75,284.75,0,0,1,627.57,508h0l-.07.12q-5.7,10.9-12.29,21.25L319.57,1040.56a2.66,2.66,0,0,0,.08,2.76c26.63,41.13,45.84,69.55,52.06,78.7a2.62,2.62,0,0,0,4.34,0l0-.07.11-.16Z"/></g></svg>